Coordinates
version=1
nRows=10
nColumns=22
inDegrees=yes

Units are S.I. units (second, meters, Newtons, ...)
If the header above contains a line with 'inDegrees', this indicates whether rotational values are in degrees (yes) or radians (no).

endheader
time	pelvis_tilt	pelvis_list	pelvis_rotation	pelvis_tx	pelvis_ty	pelvis_tz	hip_flexion_r	hip_adduction_r	hip_rotation_r	knee_angle_r	ankle_angle_r	subtalar_angle_r	hip_flexion_l	hip_adduction_l	hip_rotation_l	knee_angle_l	ankle_angle_l	subtalar_angle_l	lumbar_extension	lumbar_bending	lumbar_rotation
      0.74000000	      6.97225890	     -2.71532042	     13.22916396	     -0.37155595	      0.90562097	     -0.13415457	     21.24360430	      1.74883783	    -14.94055520	    -13.46644017	     -2.47275379	     11.25650486	    -20.49319289	     -4.48389899	     -3.31040041	    -21.18943947	     28.52367246	     -5.98033225	    -14.40897727	      5.12097750	    -17.42903403
      0.75000000	      6.93718798	     -3.20378613	     13.38871854	     -0.35850720	      0.90492620	     -0.13399755	     21.47335839	      2.29939798	    -15.17112413	    -14.91840675	     -3.31007873	      9.84924622	    -20.77527328	     -5.22562508	     -3.00069461	    -21.92080380	     27.50418410	     -5.51967213	    -14.04149751	      5.77276169	    -17.38613423
      0.76000000	      6.88117157	     -3.72441220	     13.50536069	     -0.34525217	      0.90454967	     -0.13374491	     21.70523638	      2.89358767	    -15.36769895	    -16.39225021	     -4.05795943	      8.36366618	    -20.97221282	     -5.97787207	     -2.67561952	    -22.74861691	     26.23993383	     -5.02585771	    -13.62599776	      6.44256650	    -17.30793131
      0.77000000	      6.82451066	     -4.24136874	     13.56835661	     -0.33184679	      0.90452731	     -0.13338108	     21.89785183	      3.51346958	    -15.46718848	    -17.84533017	     -4.53566690	      6.84966215	    -21.08314947	     -6.70788446	     -2.36873700	    -23.71453756	     24.66498719	     -4.48869584	    -13.20559278	      7.09033563	    -17.19106269
      0.78000000	      6.76948355	     -4.74919342	     13.58991918	     -0.31832231	      0.90485297	     -0.13292795	     22.01584229	      4.16533331	    -15.43965042	    -19.20590145	     -4.71187136	      5.42923680	    -21.09148448	     -7.41073219	     -2.05180782	    -24.83469131	     22.79793595	     -3.93148872	    -12.78285189	      7.71426735	    -17.05824943
      0.79000000	      6.71169313	     -5.23480797	     13.57562401	     -0.30471898	      0.90549842	     -0.13240523	     22.04770669	      4.83619154	    -15.30316610	    -20.44183773	     -4.61731914	      4.16111556	    -20.97504566	     -8.07193377	     -1.71729417	    -26.12217206	     20.63436507	     -3.36563978	    -12.35752134	      8.29777509	    -16.90963072
      0.80000000	      6.66798339	     -5.69129863	     13.53044576	     -0.29107790	      0.90644506	     -0.13183548	     21.95466561	      5.52298879	    -15.08774096	    -21.51222829	     -4.24159409	      3.04970458	    -20.73477367	     -8.68532261	     -1.34731116	    -27.59156036	     18.17817409	     -2.82073709	    -11.95489641	      8.84211660	    -16.74145498
      0.81000000	      6.62220245	     -6.08383527	     13.47259155	     -0.27752162	      0.90762180	     -0.13123625	     21.75483641	      6.17664594	    -14.80453503	    -22.42154461	     -3.66587112	      2.10976609	    -20.31626565	     -9.22026316	     -0.92210739	    -29.28461285	     15.43706899	     -2.30166535	    -11.57820759	      9.30326041	    -16.58081833
      0.82000000	      6.58624065	     -6.41139114	     13.41604603	     -0.26411255	      0.90898152	     -0.13063833	     21.43797933	      6.78550239	    -14.50309814	    -23.17096110	     -2.92899503	      1.33230578	    -19.72070913	     -9.67907326	     -0.42451807	    -31.19998915	     12.46923169	     -1.84416359	    -11.24871936	      9.68738151	    -16.42467411
      0.83000000	      6.55157239	     -6.66787895	     13.37617768	     -0.25093933	      0.91044052	     -0.13006603	     21.02725743	      7.32711682	    -14.21375475	    -23.78068006	     -2.07279099	      0.71929027	    -18.92160836	    -10.05282702	      0.17101648	    -33.34582426	      9.37349962	     -1.46729333	    -10.96700987	      9.98662602	    -16.27952239
